# xmcd CD database file
#
# Track frame offsets:
#	150
#	9007
#	22953
#	38233
#	53743
#	69995
#	86051
#	105161
#	124735
#	140566
#	156578
#	170940
#	191409
#
# Disc length: 2843 seconds
#
# Revision: 1
# Processed by: cddbd v1.5.1PL0 Copyright (c) Steve Scherf et al.
# Submitted via: CDex 1.60beta1
#
DISCID=a40b190d
DTITLE=Mint Jam - BRINY AIR -POTENEKO ACADEMY ORIGINAL SOUND TRACKS-
DYEAR=2003
DGENRE=Pop
TTITLE0=Refrain -Mint Jam-
TTITLE1=Sunny Day -a2c-
TTITLE2=Coastline in the Evening -setzer-
TTITLE3=Going My Way -a2c-
TTITLE4=Kung-fu Kitten -setzer-
TTITLE5=Happiness -a2c-
TTITLE6=Drug of Passion -setzer-
TTITLE7=EMOTION -a2c-
TTITLE8=Creamy Taste -setzer-
TTITLE9=Fortunate Magic -a2c-
TTITLE10=Goodtimes and Badtimes -setzer-
TTITLE11=Kung-fu Kitten (NekomiMix) -a2c-
TTITLE12=Sunny Day (Summer Mix) -setzer-
EXTD=YEAR: 2003
EXTT0=
EXTT1=
EXTT2=
EXTT3=
EXTT4=
EXTT5=
EXTT6=
EXTT7=
EXTT8=
EXTT9=
EXTT10=
EXTT11=
EXTT12=
PLAYORDER=
